<svg xmlns="http://www.w3.org/2000/svg" width="800" height="450" viewBox="0 0 800 450" role="img" aria-label="Automatizaciones WhatsApp">
  <defs>
    <linearGradient id="bg" x1="0" y1="0" x2="1" y2="1">
      <stop offset="0%" stop-color="#052e16"/>
      <stop offset="100%" stop-color="#14532d"/>
    </linearGradient>
  </defs>
  <rect width="800" height="450" fill="url(#bg)"/>
  <circle cx="400" cy="190" r="78" fill="#22c55e"/>
  <path d="M360 190c0-22 18-40 40-40s40 18 40 40-18 40-40 40c-7 0-13-1-19-4l-18 8 6-16c-6-7-9-16-9-28z" fill="#052e16"/>
  <rect x="120" y="300" width="160" height="44" rx="22" fill="#166534" stroke="#4ade80" stroke-opacity=".5"/>
  <rect x="320" y="300" width="160" height="44" rx="22" fill="#166534" stroke="#4ade80" stroke-opacity=".5"/>
  <rect x="520" y="300" width="160" height="44" rx="22" fill="#166534" stroke="#4ade80" stroke-opacity=".5"/>
  <text x="200" y="328" text-anchor="middle" fill="#dcfce7" font-family="Segoe UI, Arial" font-size="16">Leads</text>
  <text x="400" y="328" text-anchor="middle" fill="#dcfce7" font-family="Segoe UI, Arial" font-size="16">Flujos</text>
  <text x="600" y="328" text-anchor="middle" fill="#dcfce7" font-family="Segoe UI, Arial" font-size="16">Alertas</text>
  <text x="400" y="400" text-anchor="middle" fill="#bbf7d0" font-family="Segoe UI, Arial" font-size="18">Automatizaciˇn WhatsApp</text>
</svg>
